<mxfile host="app.diagrams.net" modified="2020-07-01T11:32:59.451Z" agent="5.0 (Windows)" etag="XbB_j-92ZicbdNjqjXm7" version="13.3.5" type="github">
  <diagram id="fLngxpBjYTuE2HFJQQ2o" name="Page-1">
    <mxGraphModel dx="1422" dy="774" grid="1" gridSize="10" guides="1" tooltips="1" connect="1" arrows="1" fold="1" page="1" pageScale="1" pageWidth="827" pageHeight="1169" math="0" shadow="0">
      <root>
        <mxCell id="0" />
        <mxCell id="1" parent="0" />
        <mxCell id="t2j9WeX8bXdKGk8jYpxR-1" value="&lt;h1&gt;Heading&lt;/h1&gt;&lt;p&gt;Lorem ipsum dolor sit amet, consectetur adipisicing elit, sed do eiusmod tempor incididunt ut labore et dolore magna aliqua.&lt;/p&gt;" style="text;html=1;strokeColor=none;fillColor=none;spacing=5;spacingTop=-20;whiteSpace=wrap;overflow=hidden;rounded=0;" vertex="1" parent="1">
          <mxGeometry x="370" y="230" width="190" height="120" as="geometry" />
        </mxCell>
        <mxCell id="t2j9WeX8bXdKGk8jYpxR-2" value="Classname" style="swimlane;fontStyle=1;align=center;verticalAlign=top;childLayout=stackLayout;horizontal=1;startSize=26;horizontalStack=0;resizeParent=1;resizeParentMax=0;resizeLast=0;collapsible=1;marginBottom=0;" vertex="1" parent="1">
          <mxGeometry x="240" y="470" width="160" height="86" as="geometry" />
        </mxCell>
        <mxCell id="t2j9WeX8bXdKGk8jYpxR-3" value="+ field: type" style="text;strokeColor=none;fillColor=none;align=left;verticalAlign=top;spacingLeft=4;spacingRight=4;overflow=hidden;rotatable=0;points=[[0,0.5],[1,0.5]];portConstraint=eastwest;" vertex="1" parent="t2j9WeX8bXdKGk8jYpxR-2">
          <mxGeometry y="26" width="160" height="26" as="geometry" />
        </mxCell>
        <mxCell id="t2j9WeX8bXdKGk8jYpxR-4" value="" style="line;strokeWidth=1;fillColor=none;align=left;verticalAlign=middle;spacingTop=-1;spacingLeft=3;spacingRight=3;rotatable=0;labelPosition=right;points=[];portConstraint=eastwest;" vertex="1" parent="t2j9WeX8bXdKGk8jYpxR-2">
          <mxGeometry y="52" width="160" height="8" as="geometry" />
        </mxCell>
        <mxCell id="t2j9WeX8bXdKGk8jYpxR-5" value="+ method(type): type" style="text;strokeColor=none;fillColor=none;align=left;verticalAlign=top;spacingLeft=4;spacingRight=4;overflow=hidden;rotatable=0;points=[[0,0.5],[1,0.5]];portConstraint=eastwest;" vertex="1" parent="t2j9WeX8bXdKGk8jYpxR-2">
          <mxGeometry y="60" width="160" height="26" as="geometry" />
        </mxCell>
        <mxCell id="t2j9WeX8bXdKGk8jYpxR-6" value="&lt;p style=&quot;margin:0px;margin-top:4px;text-align:center;text-decoration:underline;&quot;&gt;&lt;b&gt;Object:Type&lt;/b&gt;&lt;/p&gt;&lt;hr/&gt;&lt;p style=&quot;margin:0px;margin-left:8px;&quot;&gt;field1 = value1&lt;br/&gt;field2 = value2&lt;br&gt;field3 = value3&lt;/p&gt;" style="verticalAlign=top;align=left;overflow=fill;fontSize=12;fontFamily=Helvetica;html=1;" vertex="1" parent="1">
          <mxGeometry x="170" y="90" width="160" height="90" as="geometry" />
        </mxCell>
      </root>
    </mxGraphModel>
  </diagram>
</mxfile>
